<?xml version="1.0" standalone="no"?><!DOCTYPE svg PUBLIC "-//W3C//DTD SVG 1.1//EN" "http://www.w3.org/Graphics/SVG/1.1/DTD/svg11.dtd"><svg t="1593849727566" class="icon" viewBox="0 0 1024 1024" version="1.1" xmlns="http://www.w3.org/2000/svg" p-id="2195" xmlns:xlink="http://www.w3.org/1999/xlink" width="200" height="200"><defs><style type="text/css"></style></defs><path d="M956.78 266.4a126.43 126.43 0 0 0-42.28-77.91c-23-19.98-52.42-30.98-82.84-30.98H193.43c-33.74 0-65.47 13.16-89.34 37.04-23.85 23.87-36.99 55.63-36.99 89.39v456.39c0 33.71 13.12 65.42 36.93 89.31 23.8 23.88 55.5 37.05 89.26 37.09l0.04 0.03 638.5-0.03c30.45-0.04 59.84-11.06 82.74-31.02 23-20.01 37.99-47.66 42.2-77.82l0.33-486.82-0.32-4.67z m-808.75-27.94c12.13-12.14 28.25-18.83 45.39-18.83h638.24c15.45 0 30.4 5.59 42.09 15.74 11.52 10.02 19.09 23.77 21.22 37.54v112.46H129.23V283.93c0-17.18 6.68-33.33 18.8-45.47z m725.74 550.39a64.214 64.214 0 0 1-41.98 15.77l-638.42-0.03c-17.16-0.02-33.26-6.7-45.35-18.83-12.11-12.15-18.79-28.29-18.79-45.44V447.5h765.75v303.53a64.372 64.372 0 0 1-21.21 37.82z" fill="#fe5491" p-id="2196"></path><path d="M368.8 595.36H220.41c-17.16 0-31.06 13.91-31.06 31.06 0 17.16 13.91 31.06 31.06 31.06H368.8c17.16 0 31.06-13.91 31.06-31.06s-13.91-31.06-31.06-31.06zM293.23 686.44h-72.82c-17.16 0-31.06 13.91-31.06 31.06 0 17.16 13.91 31.06 31.06 31.06h72.82c17.16 0 31.06-13.91 31.06-31.06 0.01-17.15-13.9-31.06-31.06-31.06z" fill="#fe5491" p-id="2197"></path></svg>