<?xml version="1.0" standalone="no"?><!DOCTYPE svg PUBLIC "-//W3C//DTD SVG 1.1//EN" "http://www.w3.org/Graphics/SVG/1.1/DTD/svg11.dtd"><svg t="1592787141777" class="icon" viewBox="0 0 1024 1024" version="1.1" xmlns="http://www.w3.org/2000/svg" p-id="2071" xmlns:xlink="http://www.w3.org/1999/xlink" width="200" height="200"><defs><style type="text/css"></style></defs><path d="M511.500488 0C693.300948 0 840.679024 147.154295 840.679024 328.679024c0 114.658029-58.79858 215.602451-147.931535 274.413019l0.002997-0.013986C866.760554 670.734985 989.584609 833.149378 990.532683 1022.997979l-88.633444 0.002997-0.032968-3.916176c-3.271805-191.791703-159.842903-348.165994-358.333065-363.265249A332.771028 332.771028 0 0 1 511.500488 657.358049c-10.6496 0-21.180316-0.504507-31.571169-1.492543-199.589089 15.432929-356.663696 173.727344-357.854533 367.133472L33.467317 1023.000976l0.044956-5.3248c3.189885-187.334057 125.05088-347.192944 297.107856-414.358354l0.001998 0.017983C241.284371 544.560203 182.321951 443.4949 182.321951 328.679024 182.321951 147.154295 329.700027 0 511.500488 0z m0 88.533541c-132.830283 0-240.511126 107.517003-240.511126 240.145483 0 132.62848 107.680843 240.145483 240.511126 240.145483S752.011614 461.307504 752.011614 328.679024c0-132.62848-107.680843-240.145483-240.511126-240.145483z" fill="#333333" p-id="2072"></path></svg>