<?xml version="1.0" standalone="no"?><!DOCTYPE svg PUBLIC "-//W3C//DTD SVG 1.1//EN" "http://www.w3.org/Graphics/SVG/1.1/DTD/svg11.dtd"><svg t="1592787461263" class="icon" viewBox="0 0 1024 1024" version="1.1" xmlns="http://www.w3.org/2000/svg" p-id="899" xmlns:xlink="http://www.w3.org/1999/xlink" width="200" height="200"><defs><style type="text/css"></style></defs><path d="M471.04 728.746667c-32.426667 0-58.026667 25.6-58.026667 58.026666s25.6 58.026667 58.026667 58.026667S529.066667 819.2 529.066667 786.773333s-25.6-58.026667-58.026667-58.026666zM698.026667 728.746667c-32.426667 0-58.026667 25.6-58.026667 58.026666s25.6 58.026667 58.026667 58.026667 58.026667-25.6 58.026666-58.026667-25.6-58.026667-58.026666-58.026666zM947.2 206.506667c-5.12-6.826667-11.946667-10.24-20.48-10.24H88.746667c-13.653333 0-25.6 11.946667-25.6 25.6s11.946667 25.6 25.6 25.6h131.413333l97.28 327.68c11.946667 40.96 49.493333 68.266667 92.16 68.266666h348.16c42.666667 0 80.213333-27.306667 92.16-68.266666l102.4-346.453334c0-6.826667-1.706667-15.36-5.12-22.186666z m-238.933333 228.693333H448.853333c-13.653333 0-25.6-11.946667-25.6-25.6s11.946667-25.6 25.6-25.6h257.706667c13.653333 0 25.6 11.946667 25.6 25.6s-10.24 25.6-23.893333 25.6z" fill="#ff6a7a" p-id="900"></path></svg>